<svg xmlns="http://www.w3.org/2000/svg" width="273" height="48" fill="none" viewBox="0 0 273 48">
    <circle cx="24" cy="24" r="24" fill="#fff"/>
    <path fill="#060707" fill-rule="evenodd" d="M20.188 18.75c.816-1.392 2.325-2.25 3.957-2.25H31V12h-6.854c-1.605-.002-3.181.414-4.57 1.205-.858.488-1.63 1.11-2.286 1.842-2.38 2.652-2.96 6.431-1.48 9.657 1.478 3.226 4.74 5.299 8.335 5.296H31v-4.502h-6.855c-1.633 0-3.141-.858-3.957-2.25-.817-1.392-.817-3.107 0-4.499zM31 32l-4.48.98-2.35.514-2.17.474V38l2.17-.498 2.35-.54L31 35.935V32z" clip-rule="evenodd"/>
    <path fill="#fff" d="M73.176 18.16H66.73v3.844h5.566v3.058H66.73V32h-3.54V15.066h9.985v3.094zm3 13.84V15.066h3.515V32h-3.515zm18.668-16.934h3.738L92.324 32h-3.867l-6.223-16.934h3.727l4.441 12.832 4.442-12.832zm16.113 3.094h-6.281v3.844h5.566v3.058h-5.566v3.832h6.281V32h-9.82V15.066h9.82v3.094zm10.477 14.074c-1.235 0-2.387-.207-3.457-.62-1.063-.415-1.977-.993-2.743-1.735-.765-.742-1.367-1.66-1.804-2.754-.438-1.094-.657-2.293-.657-3.598 0-1.742.375-3.273 1.125-4.593.75-1.329 1.778-2.344 3.082-3.047 1.313-.703 2.797-1.055 4.454-1.055 1.89 0 3.546.457 4.968 1.371 1.422.914 2.434 2.172 3.036 3.774l-3.282 1.195c-.375-.977-.98-1.738-1.816-2.285-.836-.547-1.805-.82-2.906-.82-1.5 0-2.735.492-3.704 1.476-.968.984-1.453 2.313-1.453 3.984 0 1.672.485 3.004 1.453 3.996.977.985 2.211 1.477 3.704 1.477 1.093 0 2.058-.273 2.894-.82.844-.555 1.453-1.32 1.828-2.297l3.282 1.195c-.602 1.602-1.614 2.863-3.036 3.785-1.422.914-3.078 1.371-4.968 1.371zm17.168 0c-.946 0-1.817-.12-2.614-.363-.789-.25-1.484-.621-2.086-1.113-.601-.492-1.074-1.137-1.418-1.934-.336-.797-.504-1.715-.504-2.754V15.066h3.516V25.59c0 1.219.281 2.113.844 2.683.57.57 1.324.856 2.262.856.937 0 1.691-.285 2.261-.856.578-.578.867-1.472.867-2.683V15.066h3.516V26.07c0 1.04-.172 1.957-.516 2.754-.335.797-.808 1.442-1.418 1.934-.601.492-1.3.863-2.097 1.113-.789.242-1.66.363-2.613.363zm19.769-9.175c2.125.585 3.188 1.984 3.188 4.195 0 1.469-.45 2.629-1.348 3.48-.899.844-2.219 1.266-3.961 1.266h-6.973V15.066h5.485c1.804 0 3.183.41 4.136 1.23.961.813 1.442 1.95 1.442 3.411 0 .758-.168 1.43-.504 2.016-.328.578-.816 1.023-1.465 1.336zm-3.574-5.075h-2.133v3.985h2.285c.719 0 1.258-.188 1.617-.563.36-.375.539-.867.539-1.476 0-.586-.195-1.055-.585-1.407-.391-.359-.965-.539-1.723-.539zm.797 11.004c.883 0 1.527-.199 1.933-.597.414-.399.621-.907.621-1.524 0-.633-.207-1.156-.621-1.57-.414-.414-1.082-.621-2.004-.621h-2.859v4.312h2.93zM174.52 18.16h-6.282v3.844h5.567v3.058h-5.567v3.832h6.282V32h-9.821V15.066h9.821v3.094zm15.492 14.074c-1.86 0-3.426-.43-4.7-1.289-1.273-.867-2.035-2.078-2.285-3.633l3.633-.832c.117.93.488 1.645 1.113 2.145.633.492 1.426.738 2.379.738.758 0 1.375-.172 1.852-.515.476-.352.711-.867.703-1.547 0-.477-.199-.895-.598-1.254-.398-.36-.797-.613-1.195-.762-.391-.156-1.023-.367-1.898-.633-.118-.039-.204-.066-.258-.082-.446-.14-.805-.258-1.078-.351-.274-.094-.614-.223-1.02-.387-.398-.172-.726-.336-.984-.492-.25-.164-.52-.367-.809-.61-.289-.25-.515-.511-.679-.785-.165-.273-.301-.597-.411-.972-.109-.375-.164-.778-.164-1.207 0-1.024.262-1.91.785-2.66.532-.758 1.243-1.325 2.133-1.7.899-.383 1.918-.574 3.059-.574.773 0 1.508.082 2.203.246.703.164 1.363.418 1.98.762.618.336 1.141.8 1.571 1.394.437.586.738 1.27.902 2.051l-3.398.844c-.305-1.617-1.321-2.426-3.047-2.426-.766 0-1.395.164-1.887.492-.492.328-.738.825-.738 1.489 0 .617.41 1.117 1.23 1.5.383.187 1.168.457 2.356.808.461.14.836.258 1.125.352.289.093.652.23 1.09.41.437.18.793.355 1.066.527.273.164.57.38.891.645.32.265.57.547.75.844.187.296.343.648.468 1.054.125.399.188.832.188 1.301 0 .703-.113 1.34-.34 1.91-.227.57-.539 1.05-.938 1.442-.39.39-.855.722-1.394.996-.539.265-1.113.457-1.723.574-.609.125-1.254.187-1.933.187zm19.336-17.168v3.094h-4.02V32h-3.48V18.16h-4.043v-3.094h11.543zm8.941 17.168c-.945 0-1.816-.12-2.613-.363-.789-.25-1.485-.621-2.086-1.113-.602-.492-1.074-1.137-1.418-1.934-.336-.797-.504-1.715-.504-2.754V15.066h3.516V25.59c0 1.219.281 2.113.843 2.683.571.57 1.325.856 2.262.856.938 0 1.691-.285 2.262-.856.578-.578.867-1.472.867-2.683V15.066h3.516V26.07c0 1.04-.172 1.957-.516 2.754-.336.797-.809 1.442-1.418 1.934-.602.492-1.301.863-2.098 1.113-.789.242-1.66.363-2.613.363zM228.965 32V15.066h6.129c1.328 0 2.504.204 3.527.61 1.031.406 1.875.984 2.531 1.734.664.742 1.164 1.63 1.5 2.66.344 1.032.516 2.184.516 3.457 0 1.282-.172 2.438-.516 3.47-.336 1.03-.836 1.921-1.5 2.671-.656.742-1.5 1.316-2.531 1.723-1.023.406-2.199.609-3.527.609h-6.129zm3.515-3.105h2.438c1.531 0 2.672-.457 3.422-1.372.75-.921 1.125-2.253 1.125-3.996 0-1.742-.375-3.07-1.125-3.984-.75-.922-1.891-1.383-3.422-1.383h-2.438v10.735zM246.473 32V15.066h3.515V32h-3.515zm15.398.234c-1.656 0-3.141-.351-4.453-1.054-1.305-.711-2.332-1.73-3.082-3.059-.75-1.328-1.125-2.86-1.125-4.594 0-1.742.375-3.273 1.125-4.593.75-1.329 1.777-2.344 3.082-3.047 1.312-.703 2.797-1.055 4.453-1.055 1.656 0 3.137.352 4.441 1.055 1.305.703 2.333 1.718 3.083 3.047.75 1.32 1.125 2.851 1.125 4.593 0 1.735-.375 3.266-1.125 4.594-.75 1.328-1.782 2.348-3.094 3.059-1.305.703-2.781 1.054-4.43 1.054zm-3.703-4.699c.969.985 2.203 1.477 3.703 1.477s2.734-.492 3.703-1.477c.969-.992 1.453-2.328 1.453-4.008 0-1.672-.484-3-1.453-3.984-.969-.984-2.203-1.477-3.703-1.477s-2.734.493-3.703 1.477c-.969.984-1.453 2.313-1.453 3.984 0 1.68.484 3.016 1.453 4.008z"/>
</svg>
